<?xml version="1.0" encoding="UTF-8"?>
<svg version="1.1" xmlns="http://www.w3.org/2000/svg" width="500" height="500">
<path d="M0 0 C165 0 330 0 500 0 C500 165 500 330 500 500 C335 500 170 500 0 500 C0 335 0 170 0 0 Z " fill="#FEFEFE" transform="translate(0,0)"/>
<path d="M0 0 C12.87 0 25.74 0 39 0 C39 62.04 39 124.08 39 188 C26.13 188 13.26 188 0 188 C0 125.96 0 63.92 0 0 Z " fill="#FEFEFE" transform="translate(323,146)"/>
<path d="M0 0 C1.98 0 3.96 0 6 0 C6 6.6 6 13.2 6 20 C12.27 20 18.54 20 25 20 C25 63.56 25 107.12 25 152 C18.73 152 12.46 152 6 152 C6 159.26 6 166.52 6 174 C4.02 174 2.04 174 0 174 C-1 173 -1 173 -1.11352539 171.05053711 C-1.10828857 170.2178833 -1.10305176 169.38522949 -1.09765625 168.52734375 C-1.09443359 167.62822266 -1.09121094 166.72910156 -1.08789062 165.80273438 C-1.07951172 164.85720703 -1.07113281 163.91167969 -1.0625 162.9375 C-1.05798828 161.98810547 -1.05347656 161.03871094 -1.04882812 160.06054688 C-1.03700128 157.70700469 -1.01906521 155.35349468 -1 153 C-7.27 153 -13.54 153 -20 153 C-20 109.44 -20 65.88 -20 21 C-13.4 21 -6.8 21 0 21 C0 14.07 0 7.14 0 0 Z " fill="#27B327" transform="translate(162,165)"/>
<path d="M0 0 C1.65 0 3.3 0 5 0 C5 7.26 5 14.52 5 22 C12.59 22 20.18 22 28 22 C28 54.34 28 86.68 28 120 C20.41 120 12.82 120 5 120 C5 126.93 5 133.86 5 141 C3.35 141 1.7 141 0 141 C0 134.07 0 127.14 0 120 C-7.59 120 -15.18 120 -23 120 C-23 87.66 -23 55.32 -23 22 C-15.41 22 -7.82 22 0 22 C0 14.74 0 7.48 0 0 Z " fill="#FEFDFD" transform="translate(73,283)"/>
<path d="M0 0 C1.65 0 3.3 0 5 0 C5 7.26 5 14.52 5 22 C11.6 22 18.2 22 25 22 C25 51.7 25 81.4 25 112 C18.4 112 11.8 112 5 112 C5 119.92 5 127.84 5 136 C3.02 136 1.04 136 -1 136 C-1 127.75 -1 119.5 -1 111 C-7.27 111 -13.54 111 -20 111 C-20 81.96 -20 52.92 -20 23 C-13.4 23 -6.8 23 0 23 C0 15.41 0 7.82 0 0 Z " fill="#27B327" transform="translate(250,250)"/>
<path d="M0 0 C1.65 0 3.3 0 5 0 C5 7.26 5 14.52 5 22 C11.6 22 18.2 22 25 22 C25 51.04 25 80.08 25 110 C18.4 110 11.8 110 5 110 C5 117.26 5 124.52 5 132 C3.35 132 1.7 132 0 132 C0 124.74 0 117.48 0 110 C-6.6 110 -13.2 110 -20 110 C-20 80.96 -20 51.92 -20 22 C-13.4 22 -6.8 22 0 22 C0 14.74 0 7.48 0 0 Z " fill="#25B225" transform="translate(425,76)"/>
<path d="M0 0 C1.98 0 3.96 0 6 0 C6 7.26 6 14.52 6 22 C13.26 22 20.52 22 28 22 C28 88 28 154 28 222 C20.74 222 13.48 222 6 222 C6 229.26 6 236.52 6 244 C4.02 244 2.04 244 0 244 C0 236.74 0 229.48 0 222 C-7.59 222 -15.18 222 -23 222 C-23 156 -23 90 -23 22 C-15.41 22 -7.82 22 0 22 C0 14.74 0 7.48 0 0 Z M-17 28 C-17 90.04 -17 152.08 -17 216 C-4.13 216 8.74 216 22 216 C22 153.96 22 91.92 22 28 C9.13 28 -3.74 28 -17 28 Z " fill="#E81725" transform="translate(340,118)"/>
<path d="M0 0 C1.65 0 3.3 0 5 0 C5 7.26 5 14.52 5 22 C12.59 22 20.18 22 28 22 C28 54.34 28 86.68 28 120 C20.41 120 12.82 120 5 120 C5 126.93 5 133.86 5 141 C3.35 141 1.7 141 0 141 C0 134.07 0 127.14 0 120 C-7.59 120 -15.18 120 -23 120 C-23 87.66 -23 55.32 -23 22 C-15.41 22 -7.82 22 0 22 C0 14.74 0 7.48 0 0 Z M-17 28 C-17 56.38 -17 84.76 -17 114 C-4.13 114 8.74 114 22 114 C22 85.62 22 57.24 22 28 C9.13 28 -3.74 28 -17 28 Z " fill="#E7111F" transform="translate(73,283)"/>
</svg>
